<svg id="Layer_1" data-name="Layer 1" xmlns="http://www.w3.org/2000/svg" viewBox="0 0 2750 2750"><defs><style>.cls-1{fill:#f88710;}</style></defs><title>Puneet Raj Logo</title><path class="cls-1" d="M1531.19,125c-426.34,0-776.28,327.55-811.75,744.73q-3.8,19-6.37,38.41L521.22,2371.43c-19.92,152,98.46,286.88,251.76,286.88a253.9,253.9,0,0,0,252-222.38l98.8-790.46a810.83,810.83,0,0,0,407.45,109.07c450,0,814.77-364.8,814.77-814.77S1981.17,125,1531.19,125Zm0,1122.88c-170.14,0-308.1-138-308.1-308.11s138-308.11,308.1-308.11,308.11,138,308.11,308.11S1701.34,1247.88,1531.19,1247.88Z"/><path class="cls-1" d="M2161.1,2658.31h-95a674.71,674.71,0,0,1-637.47-453.65l-137.09-395.35H1431.2a611.94,611.94,0,0,1,578.17,411.45Z"/></svg>